<svg xmlns="http://www.w3.org/2000/svg" xmlns:xlink="http://www.w3.org/1999/xlink" width="800" height="259" viewBox="0 0 800 259"><defs><clipPath id="b"><rect width="800" height="259"/></clipPath></defs><g id="a" clip-path="url(#b)"><rect width="800" height="259" fill="#fff"/><line x2="63" transform="translate(92.5 161.5)" fill="none" stroke="#707070" stroke-width="1"/><line x2="63" transform="translate(171.5 161.5)" fill="none" stroke="#707070" stroke-width="1"/><line x2="63" transform="translate(250.5 161.5)" fill="none" stroke="#707070" stroke-width="1"/><line x2="63" transform="translate(329.5 161.5)" fill="none" stroke="#707070" stroke-width="1"/><line x2="63" transform="translate(408.5 161.5)" fill="none" stroke="#707070" stroke-width="1"/><line x2="135" transform="translate(487.5 161.5)" fill="none" stroke="#707070" stroke-width="1"/><line x2="70" transform="translate(638.5 161.5)" fill="none" stroke="#707070" stroke-width="1"/><line x2="63" transform="translate(487.5 109.5)" fill="none" stroke="#707070" stroke-width="1"/><g transform="translate(76 153)" fill="rgba(250,142,1,0.75)" stroke="#707070" stroke-width="1"><circle cx="8" cy="8" r="8" stroke="none"/><circle cx="8" cy="8" r="7.5" fill="none"/></g><g transform="translate(155 153)" fill="rgba(250,142,1,0.75)" stroke="#707070" stroke-width="1"><circle cx="8" cy="8" r="8" stroke="none"/><circle cx="8" cy="8" r="7.5" fill="none"/></g><g transform="translate(234 153)" fill="rgba(250,142,1,0.75)" stroke="#707070" stroke-width="1"><circle cx="8" cy="8" r="8" stroke="none"/><circle cx="8" cy="8" r="7.5" fill="none"/></g><g transform="translate(313 153)" fill="rgba(250,142,1,0.75)" stroke="#707070" stroke-width="1"><circle cx="8" cy="8" r="8" stroke="none"/><circle cx="8" cy="8" r="7.5" fill="none"/></g><g transform="translate(392 153)" fill="rgba(250,142,1,0.75)" stroke="#707070" stroke-width="1"><circle cx="8" cy="8" r="8" stroke="none"/><circle cx="8" cy="8" r="7.5" fill="none"/></g><g transform="translate(471 153)" fill="rgba(250,142,1,0.75)" stroke="#707070" stroke-width="1"><circle cx="8" cy="8" r="8" stroke="none"/><circle cx="8" cy="8" r="7.5" fill="none"/></g><g transform="translate(472 101)" fill="rgba(1,106,250,0.75)" stroke="#707070" stroke-width="1"><circle cx="8" cy="8" r="8" stroke="none"/><circle cx="8" cy="8" r="7.5" fill="none"/></g><g transform="translate(550 102)" fill="rgba(1,106,250,0.75)" stroke="#707070" stroke-width="1"><circle cx="8" cy="8" r="8" stroke="none"/><circle cx="8" cy="8" r="7.5" fill="none"/></g><g transform="translate(623 153)" fill="#4290fb" stroke="#707070" stroke-width="1"><circle cx="8" cy="8" r="8" stroke="none"/><circle cx="8" cy="8" r="7.5" fill="none"/></g><g transform="translate(708 153)" fill="rgba(250,142,1,0.75)" stroke="#707070" stroke-width="1"><circle cx="8" cy="8" r="8" stroke="none"/><circle cx="8" cy="8" r="7.5" fill="none"/></g><text transform="translate(275 208)" fill="#707070" font-size="16" font-family="HelveticaNeue, Helvetica Neue"><tspan x="0" y="0">Master Branch with merged changes</tspan></text><line x1="34" y2="1" transform="translate(438.5 109.5)" fill="none" stroke="#707070" stroke-width="1"/><line y1="20" transform="translate(400.5 133.5)" fill="none" stroke="#707070" stroke-width="1"/><line x1="174" transform="translate(84.5 201.5)" fill="none" stroke="#b1b1b1" stroke-width="1"/><line y2="18" transform="translate(84.5 183.5)" fill="none" stroke="#b1b1b1" stroke-width="1"/><line x2="166" transform="translate(550.5 201.5)" fill="none" stroke="#b1b1b1" stroke-width="1"/><line y2="18" transform="translate(716.5 183.5)" fill="none" stroke="#b1b1b1" stroke-width="1"/><line x1="38" y2="23" transform="translate(400.5 110.5)" fill="none" stroke="#707070" stroke-width="1"/><line y1="14" transform="translate(480.5 81.5)" fill="none" stroke="#b1b1b1" stroke-width="1"/><line y1="14" transform="translate(558.5 81.5)" fill="none" stroke="#b1b1b1" stroke-width="1"/><line x2="78" transform="translate(480.5 81.5)" fill="none" stroke="#b1b1b1" stroke-width="1"/><line y2="10" transform="translate(519.5 71.5)" fill="none" stroke="#b1b1b1" stroke-width="1"/><text transform="translate(456 63)" fill="#707070" font-size="16" font-family="HelveticaNeue, Helvetica Neue"><tspan x="0" y="0">Secondary Branch</tspan></text><line x2="13" transform="translate(566.5 110.5)" fill="none" stroke="#707070" stroke-width="1"/><line y2="12" transform="translate(631.5 143.5)" fill="none" stroke="#707070" stroke-width="1"/><line x2="52" y2="33" transform="translate(579.5 110.5)" fill="none" stroke="#707070" stroke-width="1"/></g></svg>