<svg xmlns="http://www.w3.org/2000/svg" xmlns:xlink="http://www.w3.org/1999/xlink" width="800" height="199" viewBox="0 0 800 199"><defs><clipPath id="b"><rect width="800" height="199"/></clipPath></defs><g id="a" clip-path="url(#b)"><rect width="800" height="199" fill="#fff"/><line x2="63" transform="translate(92.5 51.5)" fill="none" stroke="#707070" stroke-width="1"/><line x2="63" transform="translate(171.5 51.5)" fill="none" stroke="#707070" stroke-width="1"/><line x2="63" transform="translate(250.5 51.5)" fill="none" stroke="#707070" stroke-width="1"/><line x2="63" transform="translate(329.5 51.5)" fill="none" stroke="#707070" stroke-width="1"/><line x2="63" transform="translate(408.5 51.5)" fill="none" stroke="#707070" stroke-width="1"/><line x2="63" transform="translate(487.5 51.5)" fill="none" stroke="#707070" stroke-width="1"/><line x2="63" transform="translate(566.5 51.5)" fill="none" stroke="#707070" stroke-width="1"/><line x2="63" transform="translate(645.5 51.5)" fill="none" stroke="#707070" stroke-width="1"/><g transform="translate(76 43)" fill="rgba(250,142,1,0.75)" stroke="#707070" stroke-width="1"><circle cx="8" cy="8" r="8" stroke="none"/><circle cx="8" cy="8" r="7.5" fill="none"/></g><g transform="translate(155 43)" fill="rgba(250,142,1,0.75)" stroke="#707070" stroke-width="1"><circle cx="8" cy="8" r="8" stroke="none"/><circle cx="8" cy="8" r="7.5" fill="none"/></g><g transform="translate(234 43)" fill="rgba(250,142,1,0.75)" stroke="#707070" stroke-width="1"><circle cx="8" cy="8" r="8" stroke="none"/><circle cx="8" cy="8" r="7.5" fill="none"/></g><g transform="translate(313 43)" fill="rgba(250,142,1,0.75)" stroke="#707070" stroke-width="1"><circle cx="8" cy="8" r="8" stroke="none"/><circle cx="8" cy="8" r="7.5" fill="none"/></g><g transform="translate(392 43)" fill="rgba(250,142,1,0.75)" stroke="#707070" stroke-width="1"><circle cx="8" cy="8" r="8" stroke="none"/><circle cx="8" cy="8" r="7.5" fill="none"/></g><g transform="translate(471 43)" fill="rgba(250,142,1,0.75)" stroke="#707070" stroke-width="1"><circle cx="8" cy="8" r="8" stroke="none"/><circle cx="8" cy="8" r="7.5" fill="none"/></g><g transform="translate(550 43)" fill="rgba(250,142,1,0.75)" stroke="#707070" stroke-width="1"><circle cx="8" cy="8" r="8" stroke="none"/><circle cx="8" cy="8" r="7.5" fill="none"/></g><g transform="translate(629 43)" fill="rgba(250,142,1,0.75)" stroke="#707070" stroke-width="1"><circle cx="8" cy="8" r="8" stroke="none"/><circle cx="8" cy="8" r="7.5" fill="none"/></g><g transform="translate(708 43)" fill="rgba(250,142,1,0.75)" stroke="#707070" stroke-width="1"><circle cx="8" cy="8" r="8" stroke="none"/><circle cx="8" cy="8" r="7.5" fill="none"/></g><text transform="translate(49 94)" fill="#707070" font-size="16" font-family="HelveticaNeue, Helvetica Neue"><tspan x="0" y="0">Commit 1</tspan></text><text transform="translate(681 94)" fill="#707070" font-size="16" font-family="HelveticaNeue, Helvetica Neue"><tspan x="0" y="0">Commit 9</tspan></text><text transform="translate(331 156)" fill="#707070" font-size="16" font-family="HelveticaNeue, Helvetica Neue"><tspan x="0" y="0">Timeline of commits</tspan></text><line x2="526" transform="translate(142.5 88.5)" fill="none" stroke="#707070" stroke-width="1"/><g transform="translate(669 82) rotate(90)" fill="#707070"><path d="M 11.15772438049316 10.5 L 0.8422754406929016 10.5 L 6 1.044171690940857 L 11.15772438049316 10.5 Z" stroke="none"/><path d="M 6 2.088333129882812 L 1.684545516967773 10 L 10.31545448303223 10 L 6 2.088333129882812 M 6 0 L 12 11 L 0 11 L 6 0 Z" stroke="none" fill="#707070"/></g></g></svg>