<svg xmlns="http://www.w3.org/2000/svg" xmlns:xlink="http://www.w3.org/1999/xlink" width="800" height="259" viewBox="0 0 800 259"><defs><clipPath id="b"><rect width="800" height="259"/></clipPath></defs><g id="a" clip-path="url(#b)"><rect width="800" height="259" fill="#fff"/><line x2="63" transform="translate(92.5 161.5)" fill="none" stroke="#707070" stroke-width="1"/><line x2="63" transform="translate(171.5 161.5)" fill="none" stroke="#707070" stroke-width="1"/><line x2="63" transform="translate(250.5 161.5)" fill="none" stroke="#707070" stroke-width="1"/><line x2="63" transform="translate(329.5 161.5)" fill="none" stroke="#707070" stroke-width="1"/><line x2="63" transform="translate(408.5 161.5)" fill="none" stroke="#707070" stroke-width="1"/><line x2="102" transform="translate(487.5 161.5)" fill="none" stroke="#707070" stroke-width="1"/><line x2="102" transform="translate(606.5 161.5)" fill="none" stroke="#707070" stroke-width="1"/><line x2="63" transform="translate(566.5 109.5)" fill="none" stroke="#707070" stroke-width="1"/><g transform="translate(76 153)" fill="rgba(250,142,1,0.75)" stroke="#707070" stroke-width="1"><circle cx="8" cy="8" r="8" stroke="none"/><circle cx="8" cy="8" r="7.5" fill="none"/></g><g transform="translate(155 153)" fill="rgba(250,142,1,0.75)" stroke="#707070" stroke-width="1"><circle cx="8" cy="8" r="8" stroke="none"/><circle cx="8" cy="8" r="7.5" fill="none"/></g><g transform="translate(234 153)" fill="rgba(250,142,1,0.75)" stroke="#707070" stroke-width="1"><circle cx="8" cy="8" r="8" stroke="none"/><circle cx="8" cy="8" r="7.5" fill="none"/></g><g transform="translate(313 153)" fill="rgba(250,142,1,0.75)" stroke="#707070" stroke-width="1"><circle cx="8" cy="8" r="8" stroke="none"/><circle cx="8" cy="8" r="7.5" fill="none"/></g><g transform="translate(392 153)" fill="rgba(250,142,1,0.75)" stroke="#707070" stroke-width="1"><circle cx="8" cy="8" r="8" stroke="none"/><circle cx="8" cy="8" r="7.5" fill="none"/></g><g transform="translate(471 153)" fill="rgba(250,142,1,0.75)" stroke="#707070" stroke-width="1"><circle cx="8" cy="8" r="8" stroke="none"/><circle cx="8" cy="8" r="7.5" fill="none"/></g><g transform="translate(551 101)" fill="rgba(1,106,250,0.75)" stroke="#707070" stroke-width="1"><circle cx="8" cy="8" r="8" stroke="none"/><circle cx="8" cy="8" r="7.5" fill="none"/></g><g transform="translate(629 102)" fill="rgba(1,106,250,0.75)" stroke="#707070" stroke-width="1"><circle cx="8" cy="8" r="8" stroke="none"/><circle cx="8" cy="8" r="7.5" fill="none"/></g><g transform="translate(590 155)" fill="rgba(250,142,1,0.75)" stroke="#707070" stroke-width="1"><circle cx="8" cy="8" r="8" stroke="none"/><circle cx="8" cy="8" r="7.5" fill="none"/></g><g transform="translate(708 153)" fill="rgba(250,142,1,0.75)" stroke="#707070" stroke-width="1"><circle cx="8" cy="8" r="8" stroke="none"/><circle cx="8" cy="8" r="7.5" fill="none"/></g><text transform="translate(348 207)" fill="#707070" font-size="16" font-family="HelveticaNeue, Helvetica Neue"><tspan x="0" y="0">Master Branch</tspan></text><line x1="34" y2="1" transform="translate(517.5 109.5)" fill="none" stroke="#707070" stroke-width="1"/><line y1="20" transform="translate(479.5 133.5)" fill="none" stroke="#707070" stroke-width="1"/><line x1="250" transform="translate(84.5 201.5)" fill="none" stroke="#b1b1b1" stroke-width="1"/><line y2="18" transform="translate(84.5 183.5)" fill="none" stroke="#b1b1b1" stroke-width="1"/><line x2="254" transform="translate(462.5 201.5)" fill="none" stroke="#b1b1b1" stroke-width="1"/><line y2="18" transform="translate(716.5 183.5)" fill="none" stroke="#b1b1b1" stroke-width="1"/><line x1="38" y2="23" transform="translate(479.5 110.5)" fill="none" stroke="#707070" stroke-width="1"/><line y1="14" transform="translate(559.5 81.5)" fill="none" stroke="#b1b1b1" stroke-width="1"/><line y1="14" transform="translate(637.5 81.5)" fill="none" stroke="#b1b1b1" stroke-width="1"/><line x2="78" transform="translate(559.5 81.5)" fill="none" stroke="#b1b1b1" stroke-width="1"/><line y2="10" transform="translate(598.5 71.5)" fill="none" stroke="#b1b1b1" stroke-width="1"/><text transform="translate(535 63)" fill="#707070" font-size="16" font-family="HelveticaNeue, Helvetica Neue"><tspan x="0" y="0">Secondary Branch</tspan></text></g></svg>