<?xml version="1.0" standalone="no"?>
<!DOCTYPE svg PUBLIC "-//W3C//DTD SVG 20010904//EN"
 "http://www.w3.org/TR/2001/REC-SVG-20010904/DTD/svg10.dtd">
<svg version="1.0" xmlns="http://www.w3.org/2000/svg"
 width="512.000000pt" height="512.000000pt" viewBox="0 0 512.000000 512.000000"
 preserveAspectRatio="xMidYMid meet">
<metadata>
Created by potrace 1.11, written by Peter Selinger 2001-2013
</metadata>
<g transform="translate(0.000000,512.000000) scale(0.100000,-0.100000)"
fill="#000000" stroke="none">
<path d="M1115 5113 c-75 -7 -200 -35 -285 -65 -408 -143 -701 -477 -803 -913
-21 -88 -21 -113 -24 -1200 -2 -610 -2 -1179 -1 -1264 l3 -155 126 190 c734
1100 1186 2235 1284 3223 8 85 15 162 15 172 0 18 -10 19 -137 17 -76 -1 -156
-3 -178 -5z"/>
<path d="M2146 5108 c-8 -24 -50 -355 -66 -518 -59 -594 -65 -1363 -14 -1890
52 -551 166 -963 298 -1076 37 -33 45 -35 92 -32 37 3 66 14 110 43 71 47 388
361 503 500 460 554 920 1369 1216 2156 73 194 215 621 215 648 0 32 -193 113
-365 153 -88 21 -112 22 -1038 25 -770 3 -948 2 -951 -9z"/>
<path d="M4957 4263 c-151 -455 -265 -1216 -308 -2048 -26 -500 9 -779 146
-1191 47 -139 142 -384 154 -397 11 -11 86 155 114 254 54 185 52 126 52 1684
0 1176 -3 1464 -14 1525 -13 74 -73 272 -90 298 -5 9 -23 -32 -54 -125z"/>
<path d="M1586 3937 c-472 -1264 -957 -2315 -1434 -3106 l-51 -85 42 -80 c150
-288 432 -521 740 -610 182 -53 120 -51 1687 -51 1462 0 1465 0 1560 21 52 12
107 27 121 32 l25 10 -33 209 c-131 834 -148 1028 -123 1473 34 602 128 1201
324 2060 8 36 10 58 5 50 -5 -8 -87 -145 -182 -305 -414 -695 -817 -1297
-1266 -1895 -293 -391 -505 -645 -696 -835 -148 -148 -246 -217 -320 -223 -44
-4 -55 0 -81 21 -85 72 -155 297 -198 637 -45 351 -51 510 -50 1370 1 528 7
958 16 1195 8 204 14 371 13 372 -1 2 -46 -115 -99 -260z"/>
</g>
</svg>
